<?xml version="1.0" encoding="UTF-8"?>
<svg version="1.1" xmlns="http://www.w3.org/2000/svg" width="500" height="500">
<path d="M0 0 C165 0 330 0 500 0 C500 165 500 330 500 500 C335 500 170 500 0 500 C0 335 0 170 0 0 Z " fill="#000000" transform="translate(0,0)"/>
<path d="M0 0 C3.23909823 1.41764465 5.33407785 3.11436791 7.78337097 5.65052795 C8.52157578 6.40910599 9.25978058 7.16768402 10.02035522 7.94924927 C11.22107162 9.19845657 11.22107162 9.19845657 12.44604492 10.47290039 C14.21020562 12.28972821 15.9745526 14.10637518 17.73905945 15.92286682 C18.6830875 16.89802272 19.62704782 17.8732442 20.57094383 18.84852791 C23.50054252 21.87224565 26.44550165 24.88067932 29.39460754 27.88536072 C29.89325308 28.39348472 30.39189861 28.90160873 30.90565461 29.42513043 C32.4415302 30.98992832 33.97759975 32.55453566 35.51367188 34.11914062 C41.86055227 40.58478189 48.19583471 47.0605313 54.48510742 53.58227539 C59.07651548 58.34317387 63.69625485 63.07448648 68.35021096 67.77428621 C70.80801183 70.25850666 73.2496287 72.75477366 75.65721703 75.28776741 C78.35155178 78.12176022 81.10812875 80.89002581 83.87182617 83.65649414 C84.64598877 84.49132324 85.42015137 85.32615234 86.21777344 86.1862793 C94.45592493 94.22131838 97.65198616 92.21482272 111 93 C111 121.71 111 150.42 111 180 C112.71043152 178.28956848 112.40551117 175.9797946 112.63256836 173.63598633 C112.74616196 172.48580521 112.85975555 171.33562408 112.97679138 170.15058899 C113.09659866 168.89046494 113.21640594 167.63034088 113.33984375 166.33203125 C113.53037071 164.38148079 113.53037071 164.38148079 113.7247467 162.39152527 C114.06497775 158.90686207 114.39971909 155.42169134 114.73345947 151.93640137 C115.00002101 149.1617055 115.27029938 146.38737852 115.5408535 143.61306953 C117.12377627 127.41567326 117.12377627 127.41567326 118.60205078 111.20849609 C118.69224991 110.18439133 118.78244904 109.16028656 118.87538147 108.10514832 C119.03932763 106.225979 119.20005967 104.34652529 119.35691833 102.4667511 C119.42806351 101.64845322 119.49920868 100.83015533 119.57250977 99.98706055 C119.63156998 99.28356979 119.69063019 98.58007904 119.7514801 97.85527039 C120 96 120 96 121 93 C132.22 93 143.44 93 155 93 C155.32613281 96.39410156 155.65226562 99.78820312 155.98828125 103.28515625 C156.20083703 105.49642017 156.41340096 107.7076833 156.62597656 109.91894531 C157.08537775 114.69820226 157.54430451 119.47750446 158.00292969 124.25683594 C159.46863682 139.5263861 159.46863682 139.5263861 160.96484375 154.79296875 C162.19044465 167.19039322 163.35861767 179.55718281 164 192 C157.73 192 151.46 192 145 192 C144.67 186.72 144.34 181.44 144 176 C140.04 176 136.08 176 132 176 C131.67 181.28 131.34 186.56 131 192 C124.73 192 118.46 192 112 192 C111.67 189.03 111.34 186.06 111 183 C110.67 185.97 110.34 188.94 110 192 C108.72351089 191.97522079 107.44702179 191.95044159 106.1318512 191.9249115 C99.23737625 192.72422367 95.52363106 197.41899677 90.89038086 202.20141602 C89.91541638 203.17863972 88.93868168 204.15409998 87.96032715 205.12792969 C85.32083288 207.76513651 82.70666701 210.42620526 80.09647441 213.09237409 C77.36026595 215.87872671 74.60125511 218.64231374 71.84461975 221.40843201 C66.63318259 226.64469503 61.44246703 231.90100682 56.25895172 237.16489595 C50.35455328 243.1588358 44.42731498 249.12996859 38.498083 255.09932816 C26.30652891 267.37441432 14.14385447 279.67772594 2 292 C-1.36469698 290.54991262 -3.45457098 288.73804853 -5.9616394 286.08372498 C-7.12911461 284.85750931 -7.12911461 284.85750931 -8.32017517 283.60652161 C-9.16568436 282.70826157 -10.01119354 281.81000153 -10.88232422 280.88452148 C-12.26178857 279.43398691 -13.64128082 277.9834784 -15.02179837 276.53394616 C-16.00111745 275.50535834 -16.97979101 274.47615559 -17.95786357 273.4463824 C-24.26662116 266.80727856 -30.65354546 260.24379368 -37.03570724 253.67536056 C-43.23700771 247.29188268 -49.41271475 240.88803635 -55.51367188 234.40844727 C-60.3680837 229.25306345 -65.27395877 224.15319858 -70.24382985 219.10894448 C-72.86558196 216.44414249 -75.45645909 213.76100444 -77.98635483 211.00860405 C-87.74403424 200.42354775 -96.38570164 191.92887986 -111.36064339 191.20821476 C-117.26578268 191.09256031 -123.12399667 191.39242089 -129 192 C-133.15024745 177.49947308 -136.00288869 162.78120808 -139 148 C-139.33 162.52 -139.66 177.04 -140 192 C-146.27 192 -152.54 192 -159 192 C-159 159.33 -159 126.66 -159 93 C-152.73 93 -146.46 93 -140 93 C-139.67 104.22 -139.34 115.44 -139 127 C-136.36 115.78 -133.72 104.56 -131 93 C-124.4 93 -117.8 93 -111 93 C-112.33333333 100.33333333 -113.66666667 107.66666667 -115 115 C-112.64226841 113.2835714 -111.18767389 111.8933969 -110.57617188 108.98242188 C-110.38199297 106.56438353 -110.29240839 104.17593307 -110.25 101.75 C-110.20876234 100.23460001 -110.16598812 98.71924137 -110.12200928 97.20391846 C-110.09923794 96.41650898 -110.0764666 95.6290995 -110.05300522 94.81782913 C-110.0355135 94.21794552 -110.01802177 93.6180619 -110 93 C-108.95449982 93.16242691 -107.90899963 93.32485382 -106.83181763 93.49220276 C-99.04447081 94.17383562 -93.06708985 93.27808883 -86.81976318 88.33932495 C-81.47397205 83.60426395 -76.51778162 78.48966409 -71.59743261 73.32112956 C-69.09817985 70.71459439 -66.54970072 68.15706179 -64.00637817 65.59364319 C-59.212058 60.74677333 -54.46267358 55.85829911 -49.72845852 50.95278221 C-44.33069854 45.36408522 -38.88377259 39.82438326 -33.4324739 34.28797519 C-22.23329019 22.91175568 -11.09645836 11.47649643 0 0 Z " fill="#030303" transform="translate(249,104)"/>
<path d="M0 0 C3.23909823 1.41764465 5.33407785 3.11436791 7.78337097 5.65052795 C8.52157578 6.40910599 9.25978058 7.16768402 10.02035522 7.94924927 C11.22107162 9.19845657 11.22107162 9.19845657 12.44604492 10.47290039 C14.21020562 12.28972821 15.9745526 14.10637518 17.73905945 15.92286682 C18.6830875 16.89802272 19.62704782 17.8732442 20.57094383 18.84852791 C23.50054252 21.87224565 26.44550165 24.88067932 29.39460754 27.88536072 C29.89325308 28.39348472 30.39189861 28.90160873 30.90565461 29.42513043 C32.4415302 30.98992832 33.97759975 32.55453566 35.51367188 34.11914062 C41.86055227 40.58478189 48.19583471 47.0605313 54.48510742 53.58227539 C59.07651548 58.34317387 63.69625485 63.07448648 68.35021096 67.77428621 C70.80801183 70.25850666 73.2496287 72.75477366 75.65721703 75.28776741 C78.35155178 78.12176022 81.10812875 80.89002581 83.87182617 83.65649414 C84.64598877 84.49132324 85.42015137 85.32615234 86.21777344 86.1862793 C94.45592493 94.22131838 97.65198616 92.21482272 111 93 C111 121.71 111 150.42 111 180 C112.71043152 178.28956848 112.40551117 175.9797946 112.63256836 173.63598633 C112.74616196 172.48580521 112.85975555 171.33562408 112.97679138 170.15058899 C113.09659866 168.89046494 113.21640594 167.63034088 113.33984375 166.33203125 C113.53037071 164.38148079 113.53037071 164.38148079 113.7247467 162.39152527 C114.06497775 158.90686207 114.39971909 155.42169134 114.73345947 151.93640137 C115.00002101 149.1617055 115.27029938 146.38737852 115.5408535 143.61306953 C117.12377627 127.41567326 117.12377627 127.41567326 118.60205078 111.20849609 C118.69224991 110.18439133 118.78244904 109.16028656 118.87538147 108.10514832 C119.03932763 106.225979 119.20005967 104.34652529 119.35691833 102.4667511 C119.42806351 101.64845322 119.49920868 100.83015533 119.57250977 99.98706055 C119.63156998 99.28356979 119.69063019 98.58007904 119.7514801 97.85527039 C120 96 120 96 121 93 C132.22 93 143.44 93 155 93 C155.32613281 96.39410156 155.65226562 99.78820312 155.98828125 103.28515625 C156.20083703 105.49642017 156.41340096 107.7076833 156.62597656 109.91894531 C157.08537775 114.69820226 157.54430451 119.47750446 158.00292969 124.25683594 C159.46863682 139.5263861 159.46863682 139.5263861 160.96484375 154.79296875 C162.19044465 167.19039322 163.35861767 179.55718281 164 192 C157.73 192 151.46 192 145 192 C144.67 186.72 144.34 181.44 144 176 C140.04 176 136.08 176 132 176 C131.67 181.28 131.34 186.56 131 192 C124.73 192 118.46 192 112 192 C111.67 189.03 111.34 186.06 111 183 C110.67 185.97 110.34 188.94 110 192 C108.72351089 191.97522079 107.44702179 191.95044159 106.1318512 191.9249115 C99.23737625 192.72422367 95.52363106 197.41899677 90.89038086 202.20141602 C89.91541638 203.17863972 88.93868168 204.15409998 87.96032715 205.12792969 C85.32083288 207.76513651 82.70666701 210.42620526 80.09647441 213.09237409 C77.36026595 215.87872671 74.60125511 218.64231374 71.84461975 221.40843201 C66.63318259 226.64469503 61.44246703 231.90100682 56.25895172 237.16489595 C50.35455328 243.1588358 44.42731498 249.12996859 38.498083 255.09932816 C26.30652891 267.37441432 14.14385447 279.67772594 2 292 C-1.36469698 290.54991262 -3.45457098 288.73804853 -5.9616394 286.08372498 C-7.12911461 284.85750931 -7.12911461 284.85750931 -8.32017517 283.60652161 C-9.16568436 282.70826157 -10.01119354 281.81000153 -10.88232422 280.88452148 C-12.26178857 279.43398691 -13.64128082 277.9834784 -15.02179837 276.53394616 C-16.00111745 275.50535834 -16.97979101 274.47615559 -17.95786357 273.4463824 C-24.26662116 266.80727856 -30.65354546 260.24379368 -37.03570724 253.67536056 C-43.23700771 247.29188268 -49.41271475 240.88803635 -55.51367188 234.40844727 C-60.3680837 229.25306345 -65.27395877 224.15319858 -70.24382985 219.10894448 C-72.86558196 216.44414249 -75.45645909 213.76100444 -77.98635483 211.00860405 C-87.74403424 200.42354775 -96.38570164 191.92887986 -111.36064339 191.20821476 C-117.26578268 191.09256031 -123.12399667 191.39242089 -129 192 C-133.15024745 177.49947308 -136.00288869 162.78120808 -139 148 C-139.33 162.52 -139.66 177.04 -140 192 C-146.27 192 -152.54 192 -159 192 C-159 159.33 -159 126.66 -159 93 C-152.73 93 -146.46 93 -140 93 C-139.67 104.22 -139.34 115.44 -139 127 C-136.36 115.78 -133.72 104.56 -131 93 C-124.4 93 -117.8 93 -111 93 C-112.33333333 100.33333333 -113.66666667 107.66666667 -115 115 C-112.64226841 113.2835714 -111.18767389 111.8933969 -110.57617188 108.98242188 C-110.38199297 106.56438353 -110.29240839 104.17593307 -110.25 101.75 C-110.20876234 100.23460001 -110.16598812 98.71924137 -110.12200928 97.20391846 C-110.09923794 96.41650898 -110.0764666 95.6290995 -110.05300522 94.81782913 C-110.0355135 94.21794552 -110.01802177 93.6180619 -110 93 C-108.95449982 93.16242691 -107.90899963 93.32485382 -106.83181763 93.49220276 C-99.04447081 94.17383562 -93.06708985 93.27808883 -86.81976318 88.33932495 C-81.47397205 83.60426395 -76.51778162 78.48966409 -71.59743261 73.32112956 C-69.09817985 70.71459439 -66.54970072 68.15706179 -64.00637817 65.59364319 C-59.212058 60.74677333 -54.46267358 55.85829911 -49.72845852 50.95278221 C-44.33069854 45.36408522 -38.88377259 39.82438326 -33.4324739 34.28797519 C-22.23329019 22.91175568 -11.09645836 11.47649643 0 0 Z M-1.65165901 3.40277004 C-2.31350637 4.06516217 -2.97535374 4.7275543 -3.65725708 5.41001892 C-4.41728027 6.16584763 -5.17730347 6.92167633 -5.96035767 7.70040894 C-7.21192154 8.96040207 -7.21192154 8.96040207 -8.48876953 10.24584961 C-9.80593964 11.5601722 -9.80593964 11.5601722 -11.14971924 12.90104675 C-13.56234439 15.31059401 -15.97039649 17.72454414 -18.37640619 20.14068675 C-20.89023039 22.66327307 -23.40930348 25.18060746 -25.92770386 27.69862366 C-30.15622914 31.92808634 -34.3808579 36.16140972 -38.60302734 40.3972168 C-43.49165809 45.30157893 -48.38550162 50.20068905 -53.28237069 55.09682459 C-57.9845187 59.79836324 -62.68380728 64.50274848 -67.38149643 69.20874214 C-69.38470964 71.21549521 -71.38877831 73.22138827 -73.39349747 75.22663689 C-76.18868474 78.02301087 -78.97960156 80.82362232 -81.77001953 83.62475586 C-82.60844391 84.46272705 -83.44686829 85.30069824 -84.31069946 86.1640625 C-85.06508301 86.92271103 -85.81946655 87.68135956 -86.59671021 88.46299744 C-87.58835017 89.45715117 -87.58835017 89.45715117 -88.60002327 90.47138882 C-90.11256614 91.77743891 -90.11256614 91.77743891 -90 93 C-88.96552734 92.94779297 -88.96552734 92.94779297 -87.91015625 92.89453125 C-79.93466157 92.66478449 -73.41227993 93.24113538 -67.0625 98.375 C-62.16263513 104.61119165 -62.66567269 110.82850047 -62.6875 118.4375 C-62.67138672 119.55705078 -62.65527344 120.67660156 -62.63867188 121.83007812 C-62.6325341 132.1722349 -62.6325341 132.1722349 -66 137 C-68.6875 139.375 -68.6875 139.375 -71 141 C-70.21625 141.4125 -69.4325 141.825 -68.625 142.25 C-65.81388041 144.12407973 -65.20433591 144.9444351 -64 148 C-63.7215271 150.15142822 -63.7215271 150.15142822 -63.68115234 152.49316406 C-63.66128265 153.37377502 -63.64141296 154.25438599 -63.62094116 155.16168213 C-63.60938995 156.10348328 -63.59783875 157.04528442 -63.5859375 158.015625 C-63.56657135 158.98659119 -63.5472052 159.95755737 -63.5272522 160.95794678 C-63.46753491 164.05520886 -63.4211022 167.15250826 -63.375 170.25 C-63.33681302 172.35157859 -63.29776086 174.45314165 -63.2578125 176.5546875 C-63.16021333 181.7030436 -63.08058196 186.85123685 -63 192 C-69.27 192 -75.54 192 -82 192 C-81.95359375 189.00292969 -81.9071875 186.00585938 -81.859375 182.91796875 C-81.82819005 180.01881606 -81.80389621 177.11968197 -81.78027344 174.22045898 C-81.76014391 172.20377251 -81.73283763 170.18714449 -81.69824219 168.1706543 C-81.64978278 165.27377918 -81.62704501 162.37767485 -81.609375 159.48046875 C-81.58872986 158.57725388 -81.56808472 157.674039 -81.54681396 156.74345398 C-81.42764108 151.91506223 -81.42764108 151.91506223 -83.77441406 147.9074707 C-86.21674146 146.74829021 -86.21674146 146.74829021 -90 147 C-90 161.85 -90 176.7 -90 192 C-92.31 192 -94.62 192 -97 192 C-92.26944145 197.68801042 -87.2060954 202.93014909 -81.96533203 208.14819336 C-81.07688095 209.03679047 -80.18842987 209.92538757 -79.27305603 210.84091187 C-76.85586711 213.25752678 -74.43649312 215.67191301 -72.01608896 218.08530498 C-69.47985876 220.6152501 -66.9464926 223.14805995 -64.41281128 225.68055725 C-59.62323711 230.46703323 -54.83112136 235.2509561 -50.03806961 240.03394943 C-44.57776393 245.48304685 -39.1203245 250.93501111 -33.66311479 256.38720882 C-22.4452454 267.59464808 -11.22381183 278.79851168 0 290 C3.3337059 288.54771769 5.52482613 286.72441541 8.08758545 284.15965271 C8.89242874 283.35900391 9.69727203 282.5583551 10.52650452 281.73344421 C11.40044357 280.85388565 12.27438263 279.97432709 13.17480469 279.06811523 C14.101978 278.14284027 15.02915131 277.21756531 15.98442078 276.26425171 C18.5238235 273.72969133 21.05694056 271.18893339 23.58883953 268.64687991 C26.23743809 265.98949635 28.89130879 263.33738765 31.54449463 260.68458557 C35.99645973 256.23168439 40.44453651 251.774929 44.89013672 247.31567383 C50.03668905 242.15337247 55.18847314 236.99634016 60.34327197 231.84227413 C65.2974417 226.88871366 70.24875343 221.93230738 75.19846344 216.97429085 C77.30773847 214.86147705 79.41786807 212.74952213 81.52864838 210.6382122 C84.46970539 207.69596878 87.40648679 204.74949437 90.34277344 201.80249023 C91.22480942 200.92090744 92.1068454 200.03932465 93.01560974 199.13102722 C94.20595573 197.93428375 94.20595573 197.93428375 95.42034912 196.71336365 C96.11571651 196.01632041 96.81108391 195.31927717 97.52752304 194.60111141 C99.11282012 193.23986696 99.11282012 193.23986696 99 192 C96.36 192 93.72 192 91 192 C90.89558594 190.81277344 90.79117188 189.62554687 90.68359375 188.40234375 C89.93788184 181.70142107 88.46494546 175.1509668 87.0625 168.5625 C86.53228777 166.04302436 86.00233487 163.52349413 85.47265625 161.00390625 C85.2214502 159.8142627 84.97024414 158.62461914 84.71142578 157.39892578 C83.77780774 152.93844862 82.88018675 148.47129656 82 144 C81.67 144 81.34 144 81 144 C81 159.84 81 175.68 81 192 C74.73 192 68.46 192 62 192 C62 159.33 62 126.66 62 93 C68.6 93 75.2 93 82 93 C82.32613281 94.70285156 82.65226563 96.40570313 82.98828125 98.16015625 C85.280984 110.11590353 87.57847933 122.06958107 90 134 C90.33 134 90.66 134 91 134 C94.69337857 119.74180821 97.71383841 102.53041196 90.36833954 88.99290466 C80.15094592 73.73323773 65.59487954 61.19817689 52.10071957 48.89049172 C46.58085275 43.8465951 41.19545764 38.667432 35.81259 33.47822261 C27.45664176 25.43109061 19.03720129 17.45501649 10.50463867 9.59521484 C9.66869171 8.81963226 8.83274475 8.04404968 7.97146606 7.2449646 C6.82926353 6.20009888 6.82926353 6.20009888 5.66398621 5.13412476 C5.00084002 4.52498419 4.33769384 3.91584362 3.65445232 3.28824425 C1.34698944 1.49153137 0.57921506 1.50806702 -1.65165901 3.40277004 Z " fill="#F6F6F6" transform="translate(249,104)"/>
<path d="M0 0 C6.6 0 13.2 0 20 0 C22.43269562 7.61817838 24.1544235 15.20580887 25.625 23.0625 C25.8415625 24.18205078 26.058125 25.30160156 26.28125 26.45507812 C27.45430857 32.62811784 28.35536169 38.75162773 29 45 C29.01030746 44.45098526 29.02061493 43.90197052 29.03123474 43.33631897 C29.13907947 37.64278719 29.25369449 31.94942079 29.37231445 26.25610352 C29.41573423 24.12885993 29.45740393 22.0015799 29.49731445 19.87426758 C29.55484707 16.82361849 29.61858967 13.77315411 29.68359375 10.72265625 C29.70866249 9.28672874 29.70866249 9.28672874 29.73423767 7.8217926 C29.75418289 6.94095505 29.77412811 6.06011749 29.79467773 5.15258789 C29.81022202 4.37315323 29.8257663 3.59371857 29.84178162 2.79066467 C30 1 30 1 31 0 C36.94 0 42.88 0 49 0 C49 28.71 49 57.42 49 87 C50.71043152 85.28956848 50.40551117 82.9797946 50.63256836 80.63598633 C50.74616196 79.48580521 50.85975555 78.33562408 50.97679138 77.15058899 C51.09659866 75.89046494 51.21640594 74.63034088 51.33984375 73.33203125 C51.46686172 72.03166428 51.5938797 70.7312973 51.7247467 69.39152527 C52.06497775 65.90686207 52.39971909 62.42169134 52.73345947 58.93640137 C53.00002101 56.1617055 53.27029938 53.38737852 53.5408535 50.61306953 C55.12377627 34.41567326 55.12377627 34.41567326 56.60205078 18.20849609 C56.69224991 17.18439133 56.78244904 16.16028656 56.87538147 15.10514832 C57.03932763 13.225979 57.20005967 11.34652529 57.35691833 9.4667511 C57.42806351 8.64845322 57.49920868 7.83015533 57.57250977 6.98706055 C57.63156998 6.28356979 57.69063019 5.58007904 57.7514801 4.85527039 C58 3 58 3 59 0 C70.22 0 81.44 0 93 0 C93.32613281 3.39410156 93.65226562 6.78820312 93.98828125 10.28515625 C94.20083703 12.49642017 94.41340096 14.7076833 94.62597656 16.91894531 C95.08537775 21.69820226 95.54430451 26.47750446 96.00292969 31.25683594 C97.46863682 46.5263861 97.46863682 46.5263861 98.96484375 61.79296875 C100.19044465 74.19039322 101.35861767 86.55718281 102 99 C95.73 99 89.46 99 83 99 C82.67 93.72 82.34 88.44 82 83 C78.04 83 74.08 83 70 83 C69.67 88.28 69.34 93.56 69 99 C62.73 99 56.46 99 50 99 C49.505 94.545 49.505 94.545 49 90 C48.67 92.97 48.34 95.94 48 99 C41.73 99 35.46 99 29 99 C28.05759108 94.85523068 27.12102043 90.70927278 26.1875 86.5625 C25.92646484 85.41716797 25.66542969 84.27183594 25.39648438 83.09179688 C23.2997288 73.74699736 21.66951124 64.46056367 20 55 C19.67 69.52 19.34 84.04 19 99 C12.73 99 6.46 99 0 99 C0 66.33 0 33.66 0 0 Z " fill="#FDFDFD" transform="translate(311,197)"/>
<path d="M0 0 C6.6 0 13.2 0 20 0 C20 11.55 20 23.1 20 35 C22.97 35 25.94 35 29 35 C29 23.45 29 11.9 29 0 C35.6 0 42.2 0 49 0 C49 32.67 49 65.34 49 99 C42.4 99 35.8 99 29 99 C29 84.15 29 69.3 29 54 C26.03 54 23.06 54 20 54 C20 68.85 20 83.7 20 99 C13.4 99 6.8 99 0 99 C0 66.33 0 33.66 0 0 Z " fill="#FAFAFA" transform="translate(258,197)"/>
<path d="M0 0 C11.22 0 22.44 0 34 0 C34.32613281 3.39410156 34.65226562 6.78820312 34.98828125 10.28515625 C35.20083703 12.49642017 35.41340096 14.7076833 35.62597656 16.91894531 C36.08537775 21.69820226 36.54430451 26.47750446 37.00292969 31.25683594 C38.46863682 46.5263861 38.46863682 46.5263861 39.96484375 61.79296875 C41.19044465 74.19039322 42.35861767 86.55718281 43 99 C36.73 99 30.46 99 24 99 C23.67 93.72 23.34 88.44 23 83 C19.04 83 15.08 83 11 83 C10.67 88.28 10.34 93.56 10 99 C3.73 99 -2.54 99 -9 99 C-10 90 -10 90 -10 87 C-9.505 86.505 -9.505 86.505 -9 86 C-8.73949584 84.21855166 -8.54103274 82.4279917 -8.36743164 80.63598633 C-8.25383804 79.48580521 -8.14024445 78.33562408 -8.02320862 77.15058899 C-7.90340134 75.89046494 -7.78359406 74.63034088 -7.66015625 73.33203125 C-7.53313828 72.03166428 -7.4061203 70.7312973 -7.2752533 69.39152527 C-6.93502225 65.90686207 -6.60028091 62.42169134 -6.26654053 58.93640137 C-5.99997899 56.1617055 -5.72970062 53.38737852 -5.4591465 50.61306953 C-3.87622373 34.41567326 -3.87622373 34.41567326 -2.39794922 18.20849609 C-2.26265053 16.67233894 -2.26265053 16.67233894 -2.12461853 15.10514832 C-1.96067237 13.225979 -1.79994033 11.34652529 -1.64308167 9.4667511 C-1.57193649 8.64845322 -1.50079132 7.83015533 -1.42749023 6.98706055 C-1.36843002 6.28356979 -1.30936981 5.58007904 -1.2485199 4.85527039 C-1 3 -1 3 0 0 Z " fill="#FAFAFA" transform="translate(370,197)"/>
<path d="M0 0 C5.27129223 4.21703379 8.36768648 9.47074594 10 16 C10 19.3 10 22.6 10 26 C3.4 26 -3.2 26 -10 26 C-10 23.03 -10 20.06 -10 17 C-12.64 16.67 -15.28 16.34 -18 16 C-18.45248187 21.65602332 -17.54408419 24.72192692 -14 29 C-10.12238899 33.01193287 -6.06323272 36.8395627 -1.99804688 40.66015625 C4.99148189 47.4362225 10.59088129 54.89275168 11.16796875 64.91796875 C11.22859055 75.06605725 10.69502846 84.81718744 4 93 C-2.24465511 98.08340995 -8.88537867 98.6657181 -16.72265625 98.359375 C-23.04292126 97.66633045 -28.59291946 95.77433725 -33 91 C-38.23849153 80.87696906 -38.10656062 71.18886562 -38 60 C-31.4 60 -24.8 60 -18 60 C-17.5625 68.375 -17.5625 68.375 -17.43188477 71.00927734 C-17.29004058 75.13733776 -17.29004058 75.13733776 -16 79 C-14.02 79 -12.04 79 -10 79 C-9.86294102 77.0019846 -9.76709035 75.0011287 -9.6875 73 C-9.62949219 71.88625 -9.57148438 70.7725 -9.51171875 69.625 C-10.8128272 59.9655709 -18.97902811 53.8102175 -25.76171875 47.53125 C-33.25125769 40.34659494 -38.01183628 32.39093842 -38.25 21.8125 C-38.15225749 15.29633271 -36.71252024 8.80801025 -32.6875 3.5625 C-23.99516919 -4.72553635 -10.51282632 -5.28827021 0 0 Z " fill="#FAFAFA" transform="translate(246,199)"/>
<path d="M0 0 C6.27 0 12.54 0 19 0 C19 32.67 19 65.34 19 99 C12.73 99 6.46 99 0 99 C0 66.33 0 33.66 0 0 Z " fill="#FCFCFC" transform="translate(188,197)"/>
<path d="M0 0 C0.33 0 0.66 0 1 0 C1.16971023 2.97902065 1.33583751 5.95817256 1.5 8.9375 C1.54769531 9.76830078 1.59539062 10.59910156 1.64453125 11.45507812 C1.86943166 15.58360701 2.01498929 19.67753805 1.9609375 23.8125 C1.94517296 27.07110153 2.18607263 29.9165537 3.125 33.0625 C3.33382812 33.81660156 3.54265625 34.57070312 3.7578125 35.34765625 C7.6844056 43.73179687 14.74343631 49.89447699 21.34179688 56.17578125 C25.78495713 60.49772641 29.53806614 64.24403779 30.328125 70.66796875 C30.30234375 71.49941406 30.2765625 72.33085937 30.25 73.1875 C30.23453125 74.02667969 30.2190625 74.86585938 30.203125 75.73046875 C30 78 30 78 29 81 C26.03 81.495 26.03 81.495 23 82 C20.96879293 78.95318939 20.75340125 78.39881676 20.8046875 74.98828125 C20.80968262 74.30548096 20.81467773 73.62268066 20.81982422 72.91918945 C20.84713623 71.62887817 20.84713623 71.62887817 20.875 70.3125 C20.936875 66.1978125 20.936875 66.1978125 21 62 C14.4 62 7.8 62 1 62 C1.185625 64.578125 1.37125 67.15625 1.5625 69.8125 C2.18308898 79.59864059 1.70393855 89.23149888 1 99 C0.67 99 0.34 99 0 99 C0 66.33 0 33.66 0 0 Z " fill="#161616" transform="translate(207,197)"/>
<path d="M0 0 C5.75 -0.125 5.75 -0.125 8 1 C8 3.97 8 6.94 8 10 C8.94637329 9.94670532 8.94637329 9.94670532 9.91186523 9.89233398 C12.75347554 9.73532591 15.595449 9.5863081 18.4375 9.4375 C19.92733398 9.35338867 19.92733398 9.35338867 21.44726562 9.26757812 C22.39150391 9.21923828 23.33574219 9.17089844 24.30859375 9.12109375 C25.18314209 9.0739624 26.05769043 9.02683105 26.95874023 8.97827148 C29 9 29 9 30 10 C30.08858646 12.73894085 30.11523479 15.4525327 30.09765625 18.19140625 C30.0962413 19.01124496 30.09482635 19.83108368 30.09336853 20.67576599 C30.08775289 23.30471382 30.07519779 25.93357773 30.0625 28.5625 C30.05748701 30.34049357 30.05292376 32.11848846 30.04882812 33.89648438 C30.03777839 38.26435545 30.02050331 42.63216348 30 47 C28 46 28 46 27.24609375 43.84765625 C26.97925781 42.92855469 26.71242187 42.00945312 26.4375 41.0625 C24.02127744 34.22678672 20.09541269 30.03824116 15 25 C13.15432001 23.1707947 11.30931276 21.34093493 9.46630859 19.5090332 C8.21700741 18.27270886 6.9610041 17.04311296 5.69775391 15.82104492 C4.82836182 14.96990112 4.82836182 14.96990112 3.94140625 14.1015625 C3.16325562 13.34866943 3.16325562 13.34866943 2.36938477 12.58056641 C0.81578413 10.78737502 -0.14020346 9.21317508 -1 7 C-0.625 3.25 -0.625 3.25 0 0 Z " fill="#0B0B0B" transform="translate(228,215)"/>
<path d="M0 0 C0 21.78 0 43.56 0 66 C-3.30075396 62.69924604 -3.95914894 60.29694816 -4.9375 55.9375 C-5.1015332 55.24011719 -5.26556641 54.54273438 -5.43457031 53.82421875 C-5.78351795 52.33043153 -6.12726837 50.83542246 -6.46630859 49.33935547 C-7.00849942 46.96274408 -7.57482499 44.59280824 -8.14453125 42.22265625 C-8.51409111 40.64868841 -8.88260607 39.07447482 -9.25 37.5 C-9.42523193 36.77159912 -9.60046387 36.04319824 -9.78100586 35.29272461 C-12.09843185 25.07620329 -10.63325436 15.7733438 -7 6 C-2.91511036 0 -2.91511036 0 0 0 Z " fill="#040404" transform="translate(139,217)"/>
<path d="M0 0 C1.14926266 0.95421808 2.29430541 1.91352045 3.4375 2.875 C4.07558594 3.40867188 4.71367187 3.94234375 5.37109375 4.4921875 C7 6 7 6 8 8 C7.82861857 10.67045824 7.58963074 13.29595786 7.29296875 15.953125 C7.20819275 16.75746475 7.12341675 17.5618045 7.03607178 18.39051819 C6.75886322 21.01098275 6.47348629 23.63048002 6.1875 26.25 C5.80473853 29.81092763 5.42528686 33.3722015 5.046875 36.93359375 C4.95345322 37.80811691 4.86003143 38.68264008 4.76377869 39.58366394 C4.24175634 44.52198306 3.77522433 49.45879073 3.390625 54.41015625 C3.31046143 55.43270508 3.23029785 56.45525391 3.14770508 57.50878906 C3.01104702 59.33153136 2.88527889 61.15513425 2.7722168 62.97949219 C2.58984375 65.36328125 2.58984375 65.36328125 2 69 C0.515 69.99 0.515 69.99 -1 71 C-1.02312545 61.89040835 -1.04091612 52.78082674 -1.05181217 43.6712122 C-1.05704056 39.44168629 -1.0641374 35.2121804 -1.07543945 30.98266602 C-1.08626991 26.90431457 -1.09227717 22.82598243 -1.09487724 18.74761772 C-1.09673121 17.18822361 -1.10035127 15.6288306 -1.10573006 14.06944466 C-1.11294262 11.89270838 -1.11399085 9.71605286 -1.11352539 7.53930664 C-1.115746 6.29798477 -1.11796661 5.0566629 -1.12025452 3.77772522 C-1 1 -1 1 0 0 Z " fill="#040404" transform="translate(360,214)"/>
<path d="M0 0 C6 0 6 0 9 2 C9.3984375 5.15234375 9.3984375 5.15234375 9.375 8.9375 C9.38273438 10.18402344 9.39046875 11.43054688 9.3984375 12.71484375 C9 16 9 16 7.8515625 17.94140625 C6 19 6 19 0 19 C0 12.73 0 6.46 0 0 Z " fill="#161616" transform="translate(159,215)"/>
<path d="M0 0 C0.33 0 0.66 0 1 0 C1.02518408 5.34871091 1.04308238 10.69738547 1.05493164 16.04614258 C1.05988416 17.85637006 1.06664799 19.66659373 1.07543945 21.47680664 C1.13472718 34.02139304 0.79476809 46.47993852 0 59 C-0.33 59 -0.66 59 -1 59 C-1.01458252 58.3294458 -1.02916504 57.6588916 -1.04418945 56.96801758 C-1.118883 53.91561178 -1.21547299 50.86427415 -1.3125 47.8125 C-1.33505859 46.75740234 -1.35761719 45.70230469 -1.38085938 44.61523438 C-1.41630859 43.59365234 -1.45175781 42.57207031 -1.48828125 41.51953125 C-1.51446533 40.58214111 -1.54064941 39.64475098 -1.56762695 38.67895508 C-2.23808731 34.5248266 -3.97221629 31.85159222 -7.1875 29.1875 C-7.785625 28.795625 -8.38375 28.40375 -9 28 C-8.236875 27.62875 -7.47375 27.2575 -6.6875 26.875 C-3.29411896 24.50752485 -2.51498323 22.85632095 -1 19 C-0.52057102 15.71157719 -0.39998434 12.44440569 -0.3125 9.125 C-0.27833984 8.24585938 -0.24417969 7.36671875 -0.20898438 6.4609375 C-0.1270686 4.30772295 -0.06184421 2.15388449 0 0 Z " fill="#1B1B1B" transform="translate(187,216)"/>
<path d="M0 0 C1.14926266 0.95421808 2.29430541 1.91352045 3.4375 2.875 C4.07558594 3.40867188 4.71367187 3.94234375 5.37109375 4.4921875 C7 6 7 6 8 8 C4.90837736 6.61410019 3.50816459 5.50816459 1 3 C0.67 21.48 0.34 39.96 0 59 C0.66 59 1.32 59 2 59 C2.33 58.34 2.66 57.68 3 57 C2.9131252 58.95917659 2.80495488 60.91741871 2.6875 62.875 C2.62949219 63.96554687 2.57148438 65.05609375 2.51171875 66.1796875 C2.34285156 67.11039062 2.17398437 68.04109375 2 69 C0.515 69.99 0.515 69.99 -1 71 C-1.02312545 61.89040835 -1.04091612 52.78082674 -1.05181217 43.6712122 C-1.05704056 39.44168629 -1.0641374 35.2121804 -1.07543945 30.98266602 C-1.08626991 26.90431457 -1.09227717 22.82598243 -1.09487724 18.74761772 C-1.09673121 17.18822361 -1.10035127 15.6288306 -1.10573006 14.06944466 C-1.11294262 11.89270838 -1.11399085 9.71605286 -1.11352539 7.53930664 C-1.115746 6.29798477 -1.11796661 5.0566629 -1.12025452 3.77772522 C-1 1 -1 1 0 0 Z " fill="#747474" transform="translate(360,214)"/>
<path d="M0 0 C6 5 6 5 6.83203125 7.46484375 C6.82558594 8.28082031 6.81914062 9.09679687 6.8125 9.9375 C6.83957031 10.75089844 6.86664063 11.56429687 6.89453125 12.40234375 C6 15 6 15 -1 21 C-0.67 14.07 -0.34 7.14 0 0 Z " fill="#080808" transform="translate(384,240)"/>
<path d="M0 0 C0.33 0 0.66 0 1 0 C2.22914592 9.36126309 3.36799953 18.53423442 3 28 C1.01953125 26.90625 1.01953125 26.90625 -1 25 C-1.42578125 22.03125 -1.42578125 22.03125 -1.3125 18.5 C-1.26029297 16.63988281 -1.26029297 16.63988281 -1.20703125 14.7421875 C-0.93425366 9.81160394 -0.56072265 4.90632318 0 0 Z " fill="#101010" transform="translate(386,214)"/>
<path d="M0 0 C2.74285158 2.74285158 2.39592855 4.48353787 2.5 8.3125 C2.44660915 14.34566566 2.44660915 14.34566566 0.65625 16.96875 C-1 18.3125 -1 18.3125 -4 20 C-3.34034961 13.13963599 -1.7637236 6.65556077 0 0 Z " fill="#171717" transform="translate(137,200)"/>
<path d="M0 0 C2.475 0.495 2.475 0.495 5 1 C5 4.96 5 8.92 5 13 C1.8337911 9.8337911 1.51932909 8.99910305 0.8125 4.8125 C0.65394531 3.91144531 0.49539062 3.01039063 0.33203125 2.08203125 C0.22246094 1.39496094 0.11289063 0.70789063 0 0 Z " fill="#191919" transform="translate(134,270)"/>
<path d="M0 0 C0.33 0 0.66 0 1 0 C1 2.64 1 5.28 1 8 C-1.64 8 -4.28 8 -7 8 C-6.02133662 6.85373678 -5.04205413 5.70800212 -4.0625 4.5625 C-3.51722656 3.92441406 -2.97195313 3.28632813 -2.41015625 2.62890625 C-1.63204305 1.73008851 -0.84063472 0.84063472 0 0 Z " fill="#090909" transform="translate(390,256)"/>
</svg>
